<?xml version="1.0" standalone="no"?>
<!DOCTYPE svg PUBLIC "-//W3C//DTD SVG 20010904//EN"
 "http://www.w3.org/TR/2001/REC-SVG-20010904/DTD/svg10.dtd">
<svg version="1.0" xmlns="http://www.w3.org/2000/svg"
 width="512.000000pt" height="512.000000pt" viewBox="0 0 512.000000 512.000000"
 preserveAspectRatio="xMidYMid meet">
<metadata>
Created by potrace 1.14, written by Peter Selinger 2001-2017
</metadata>
<g transform="translate(0.000000,512.000000) scale(0.100000,-0.100000)"
fill="#000000" stroke="none">
<path d="M276 4869 c-28 -8 -67 -24 -86 -33 -52 -27 -124 -106 -156 -172 l-29
-59 -3 -1555 c-2 -1139 0 -1571 8 -1615 25 -128 109 -226 239 -276 56 -22 57
-22 846 -23 l790 -1 -2 -76 c-3 -127 -55 -228 -157 -303 -89 -66 -112 -69
-566 -71 -389 -2 -407 -3 -461 -24 -137 -53 -229 -167 -245 -307 -8 -61 5 -96
40 -111 16 -7 4092 -12 4128 -4 4 0 17 11 28 24 53 56 -11 247 -111 331 -42
36 -114 71 -164 81 -22 5 -218 9 -435 10 -347 1 -401 4 -448 19 -103 35 -203
133 -237 235 -17 51 -28 171 -17 187 4 6 295 10 787 10 714 0 784 1 831 17
118 40 199 120 240 234 l24 68 -3 1575 -2 1575 -28 56 c-52 107 -153 191 -257
215 -19 4 -1040 8 -2269 8 -2010 1 -2240 -1 -2285 -15z"/>
</g>
</svg>
